<svg xmlns="http://www.w3.org/2000/svg" height="100%" version="1.1" viewBox="0 0 1000 100" width="100%" style="height: 40px;background: black;">
  <path fill="white" d="M 0.0,100 L 0.0,47.2 L 10.0,87.5 L 20.0,100.0 L 30.0,97.3 L 40.0,97.9 L 50.0,92.8 L 60.0,95.7 L 70.0,93.9 L 80.0,92.3 L 90.0,90.5 L 100.0,90.0 L 110.0,87.6 L 120.0,86.9 L 130.0,85.1 L 140.0,84.6 L 150.0,82.3 L 160.0,81.1 L 170.0,78.3 L 180.0,75.9 L 190.0,74.4 L 200.0,72.9 L 210.0,71.3 L 220.0,68.2 L 230.0,64.4 L 240.0,59.3 L 250.0,54.6 L 260.0,48.7 L 270.0,36.9 L 280.0,32.7 L 290.0,33.9 L 300.0,36.0 L 310.0,40.6 L 320.0,44.9 L 330.0,48.2 L 340.0,48.5 L 350.0,47.2 L 360.0,44.6 L 370.0,43.3 L 380.0,37.2 L 390.0,38.0 L 400.0,43.1 L 410.0,45.5 L 420.0,46.7 L 430.0,47.8 L 440.0,46.8 L 450.0,48.2 L 460.0,48.1 L 470.0,48.6 L 480.0,48.6 L 490.0,49.7 L 500.0,50.3 L 510.0,51.5 L 520.0,51.8 L 530.0,52.3 L 540.0,52.4 L 550.0,52.4 L 560.0,52.3 L 570.0,52.2 L 580.0,52.0 L 590.0,51.6 L 600.0,51.2 L 610.0,50.9 L 620.0,50.1 L 630.0,49.4 L 640.0,48.3 L 650.0,47.4 L 660.0,46.3 L 670.0,45.7 L 680.0,44.1 L 690.0,43.3 L 700.0,42.3 L 710.0,42.5 L 720.0,42.8 L 730.0,42.4 L 740.0,8.2 L 750.0,41.3 L 760.0,41.4 L 770.0,41.5 L 780.0,41.9 L 790.0,41.3 L 800.0,40.9 L 810.0,40.6 L 820.0,39.9 L 830.0,39.0 L 840.0,38.0 L 850.0,37.7 L 860.0,37.3 L 870.0,37.3 L 880.0,36.6 L 890.0,0.0 L 900.0,0.5 L 910.0,37.0 L 920.0,38.5 L 930.0,39.7 L 940.0,41.3 L 950.0,42.8 L 960.0,44.6 L 970.0,44.1 L 980.0,40.9 L 990.0,35.9 L 1000,100 Z"/>
</svg>