<svg xmlns="http://www.w3.org/2000/svg" height="100%" version="1.1" viewBox="0 0 1000 100" width="100%" style="height: 40px;background: black;">
  <path fill="white" d="M 0.0,100.0 C 1.0,89.5 2.0,49.9 5.0,47.4 C 8.0,44.9 11.0,79.0 15.0,87.5 C 19.0,96.1 21.0,89.5 25.0,90.0 C 29.0,90.5 31.0,90.0 35.0,90.0 C 39.0,90.0 41.0,90.0 45.0,90.0 C 49.0,90.0 51.0,90.0 55.0,90.0 C 59.0,90.0 61.0,90.0 65.0,90.0 C 69.0,90.0 71.0,90.0 75.0,90.0 C 79.0,90.0 81.0,90.0 85.0,90.0 C 89.0,90.0 91.0,90.0 95.0,90.0 C 99.0,90.0 101.0,90.5 105.0,90.0 C 109.0,89.5 111.0,88.2 115.0,87.6 C 119.0,87.0 121.0,87.5 125.0,87.0 C 129.0,86.5 131.0,85.6 135.0,85.1 C 139.0,84.7 141.0,85.2 145.0,84.6 C 149.0,84.1 151.0,83.1 155.0,82.4 C 159.0,81.7 161.0,81.9 165.0,81.1 C 169.0,80.3 171.0,79.4 175.0,78.4 C 179.0,77.3 181.0,76.7 185.0,75.9 C 189.0,75.1 191.0,75.0 195.0,74.4 C 199.0,73.8 201.0,73.5 205.0,72.9 C 209.0,72.3 211.0,72.3 215.0,71.3 C 219.0,70.4 221.0,69.6 225.0,68.2 C 229.0,66.9 231.0,66.2 235.0,64.4 C 239.0,62.7 241.0,61.4 245.0,59.4 C 249.0,57.5 251.0,56.8 255.0,54.7 C 259.0,52.6 261.0,52.4 265.0,48.8 C 269.0,45.3 271.0,40.3 275.0,37.1 C 279.0,33.9 281.0,33.5 285.0,32.9 C 289.0,32.3 291.0,33.5 295.0,34.1 C 299.0,34.8 301.0,34.9 305.0,36.2 C 309.0,37.5 311.0,39.0 315.0,40.8 C 319.0,42.5 321.0,43.5 325.0,45.0 C 329.0,46.5 331.0,47.6 335.0,48.3 C 339.0,49.1 341.0,48.9 345.0,48.7 C 349.0,48.5 351.0,48.1 355.0,47.3 C 359.0,46.6 361.0,45.6 365.0,44.8 C 369.0,44.0 371.0,44.9 375.0,43.4 C 379.0,42.0 381.0,38.4 385.0,37.3 C 389.0,36.3 391.0,37.0 395.0,38.1 C 399.0,39.3 401.0,41.7 405.0,43.2 C 409.0,44.7 411.0,44.9 415.0,45.6 C 419.0,46.3 421.0,46.4 425.0,46.8 C 429.0,47.3 431.0,47.9 435.0,47.9 C 439.0,47.9 441.0,46.8 445.0,46.9 C 449.0,46.9 451.0,48.0 455.0,48.3 C 459.0,48.6 461.0,48.1 465.0,48.2 C 469.0,48.3 471.0,48.6 475.0,48.6 C 479.0,48.7 481.0,48.4 485.0,48.7 C 489.0,48.9 491.0,49.4 495.0,49.8 C 499.0,50.1 501.0,50.0 505.0,50.3 C 509.0,50.7 511.0,51.2 515.0,51.5 C 519.0,51.8 521.0,51.7 525.0,51.8 C 529.0,52.0 531.0,52.2 535.0,52.4 C 539.0,52.5 541.0,52.4 545.0,52.4 C 549.0,52.5 551.0,52.5 555.0,52.4 C 559.0,52.4 561.0,52.4 565.0,52.3 C 569.0,52.3 571.0,52.2 575.0,52.2 C 579.0,52.1 581.0,52.1 585.0,52.0 C 589.0,51.9 591.0,51.8 595.0,51.7 C 599.0,51.5 601.0,51.4 605.0,51.3 C 609.0,51.1 611.0,51.1 615.0,50.9 C 619.0,50.7 621.0,50.5 625.0,50.2 C 629.0,49.9 631.0,49.8 635.0,49.4 C 639.0,49.0 641.0,48.7 645.0,48.3 C 649.0,47.9 651.0,47.8 655.0,47.4 C 659.0,47.0 661.0,46.6 665.0,46.3 C 669.0,46.0 671.0,46.2 675.0,45.7 C 679.0,45.3 681.0,44.6 685.0,44.2 C 689.0,43.7 691.0,43.7 695.0,43.3 C 699.0,43.0 701.0,42.5 705.0,42.4 C 709.0,42.2 711.0,42.4 715.0,42.5 C 719.0,42.6 721.0,42.9 725.0,42.9 C 729.0,42.9 731.0,49.4 735.0,42.5 C 739.0,35.5 741.0,8.4 745.0,8.2 C 749.0,7.9 751.0,34.6 755.0,41.3 C 759.0,47.9 761.0,41.3 765.0,41.4 C 769.0,41.4 771.0,41.4 775.0,41.5 C 779.0,41.6 781.0,41.9 785.0,41.9 C 789.0,41.8 791.0,41.5 795.0,41.3 C 799.0,41.2 801.0,41.1 805.0,40.9 C 809.0,40.7 811.0,40.8 815.0,40.6 C 819.0,40.4 821.0,40.2 825.0,39.9 C 829.0,39.6 831.0,39.4 835.0,39.0 C 839.0,38.6 841.0,38.3 845.0,38.0 C 849.0,37.8 851.0,37.8 855.0,37.7 C 859.0,37.6 861.0,37.4 865.0,37.4 C 869.0,37.3 871.0,37.4 875.0,37.3 C 879.0,37.1 881.0,44.1 885.0,36.6 C 889.0,29.1 891.0,7.2 895.0,0.0 C 899.0,-7.2 901.0,-6.9 905.0,0.5 C 909.0,7.9 911.0,29.4 915.0,37.0 C 919.0,44.6 921.0,38.0 925.0,38.5 C 929.0,39.1 931.0,39.1 935.0,39.7 C 939.0,40.2 941.0,40.7 945.0,41.3 C 949.0,41.9 951.0,42.2 955.0,42.8 C 959.0,43.4 961.0,44.3 965.0,44.5 C 969.0,44.8 971.0,44.8 975.0,44.1 C 979.0,43.3 981.0,42.4 985.0,40.8 C 989.0,39.1 992.0,36.8 995.0,35.8 C 998.0,34.8 999.0,23.0 1000.0,35.8 C 1001.0,48.7 1000.0,87.2 1000.0,100.0 Z"/>
</svg>